<?xml version="1.0" standalone="no"?>
<!DOCTYPE svg PUBLIC "-//W3C//DTD SVG 20010904//EN"
 "http://www.w3.org/TR/2001/REC-SVG-20010904/DTD/svg10.dtd">
<svg version="1.0" xmlns="http://www.w3.org/2000/svg"
 width="100.000000pt" height="101.000000pt" viewBox="0 0 100.000000 101.000000"
 preserveAspectRatio="xMidYMid meet">

<g transform="translate(0.000000,101.000000) scale(0.100000,-0.100000)"
fill="#000000" stroke="none">
<path d="M380 943 c-175 -48 -300 -188 -332 -371 -40 -236 128 -469 372 -513
289 -51 555 197 526 489 -28 277 -300 467 -566 395z m269 -104 c24 -5 57 -19
73 -30 58 -42 80 -128 47 -189 -10 -19 -18 -30 -18 -25 -1 6 3 16 8 24 6 9 4
19 -4 28 -18 18 -30 17 -15 -2 10 -12 9 -22 -5 -52 -10 -21 -22 -41 -27 -44
-6 -4 6 -16 25 -28 41 -25 68 -76 69 -130 1 -61 -10 -84 -38 -78 -13 2 -21 0
-18 -4 3 -5 12 -9 20 -9 8 0 14 -5 14 -11 0 -6 -9 -8 -22 -3 -20 6 -21 5 -10
-9 18 -21 8 -35 -42 -57 -38 -18 -42 -18 -59 -3 -17 16 -17 16 -11 0 7 -20
-22 -35 -38 -19 -8 8 -15 8 -24 1 -7 -5 -41 -9 -76 -7 l-63 3 0 60 0 60 77 1
c52 0 84 6 101 17 19 12 27 13 38 4 11 -10 11 -9 1 4 -6 8 -9 25 -5 37 8 33
-5 70 -29 83 -12 7 -59 15 -103 18 l-80 6 0 55 0 55 65 2 c36 0 73 1 83 2 25
1 57 37 57 65 0 38 -26 51 -119 56 l-86 5 -3 49 c-5 75 -4 76 90 76 46 0 103
-5 127 -11z m-339 -9 c0 -5 7 -10 16 -10 8 0 12 5 9 10 -4 6 12 10 39 10 l46
0 -3 -35 c-1 -19 -5 -35 -9 -35 -5 0 -8 5 -8 10 0 6 -4 10 -10 10 -5 0 -7 -7
-4 -15 4 -8 12 -15 20 -15 11 0 13 -37 11 -207 -2 -196 -3 -211 -26 -256 -31
-65 -90 -107 -146 -107 l-43 0 -1 70 c-1 60 2 70 17 70 9 0 25 11 34 24 15 20
17 54 19 249 1 160 4 227 12 231 20 8 27 7 27 -4z"/>
<path d="M695 690 c-3 -5 -1 -10 4 -10 6 0 11 5 11 10 0 6 -2 10 -4 10 -3 0
-8 -4 -11 -10z"/>
<path d="M700 495 c0 -8 7 -15 15 -15 9 0 12 6 9 15 -4 8 -10 15 -15 15 -5 0
-9 -7 -9 -15z"/>
<path d="M752 460 c0 -17 -11 -40 -26 -55 -15 -15 -23 -32 -19 -41 6 -16 18
-10 18 9 0 7 4 12 8 12 23 0 48 87 29 99 -5 3 -9 -8 -10 -24z"/>
<path d="M690 341 c0 -5 6 -14 14 -20 10 -9 15 -8 19 3 3 8 -1 17 -9 20 -21 8
-24 8 -24 -3z"/>
<path d="M635 310 c3 -5 11 -10 16 -10 6 0 7 5 4 10 -3 6 -11 10 -16 10 -6 0
-7 -4 -4 -10z"/>
<path d="M495 280 c-3 -5 -1 -10 4 -10 6 0 11 5 11 10 0 6 -2 10 -4 10 -3 0
-8 -4 -11 -10z"/>
<path d="M270 330 c-13 -8 -12 -10 3 -10 9 0 17 5 17 10 0 12 -1 12 -20 0z"/>
<path d="M225 310 c3 -5 8 -10 11 -10 2 0 4 5 4 10 0 6 -5 10 -11 10 -5 0 -7
-4 -4 -10z"/>
<path d="M220 270 c0 -5 5 -10 11 -10 5 0 7 5 4 10 -3 6 -8 10 -11 10 -2 0 -4
-4 -4 -10z"/>
<path d="M260 260 c-9 -6 -10 -10 -3 -10 6 0 15 5 18 10 8 12 4 12 -15 0z"/>
</g>
</svg>
